<svg aria-hidden="true" style="position: absolute; width: 0; height: 0; overflow: hidden;" version="1.1" xmlns="http://www.w3.org/2000/svg" xmlns:xlink="http://www.w3.org/1999/xlink">
<defs>
<symbol id="icon-googleplay" viewBox="0 0 33 32">
<path fill="currentColor" d="M25.798 17.19l-3.637 2.033-3.262-3.202 3.288-3.228 3.611 2.019c0.213 0.119 0.39 0.292 0.514 0.501s0.188 0.446 0.188 0.688-0.065 0.479-0.188 0.688c-0.123 0.209-0.301 0.382-0.514 0.501zM6.604 5.847c-0.069 0.165-0.104 0.342-0.104 0.521v19.266c0 0.199 0.042 0.384 0.115 0.55l10.353-10.163-10.364-10.173zM17.933 15.073l3.024-2.968-12.392-6.926c-0.266-0.151-0.575-0.208-0.878-0.164l10.246 10.059zM17.933 16.968l-10.209 10.022c0.277 0.033 0.568-0.015 0.841-0.168l12.366-6.912-2.998-2.942z"></path>
</symbol>
</defs>
</svg>
